<svg xmlns="http://www.w3.org/2000/svg" width="152" height="149" viewBox="0 0 152 149">
<g>
<path d="M 65.76 139.97 C44.19,136.33 26.41,123.03 17.04,103.50 C11.97,92.93 10.54,86.56 10.54,74.50 C10.54,62.38 11.96,56.11 17.19,45.13 C24.33,30.13 39.43,17.44 55.92,12.60 C62.55,10.65 83.11,8.59 83.92,9.80 C84.24,10.27 87.43,11.27 91.00,12.01 C94.57,12.75 101.55,15.40 106.50,17.91 C138.02,33.89 150.04,72.15 133.85,104.99 C128.76,115.32 116.98,127.69 107.47,132.70 C94.31,139.64 79.32,142.25 65.76,139.97 ZM 54.15 110.10 C55.55,112.24 56.39,112.56 59.65,112.19 C63.81,111.73 66.31,110.30 65.43,108.89 C65.13,108.40 65.26,108.00 65.71,108.00 C66.17,108.00 66.68,104.96 66.84,101.25 C67.00,97.54 67.46,94.16 67.87,93.75 C68.27,93.34 71.95,92.78 76.05,92.49 C80.15,92.21 84.40,91.58 85.50,91.09 C86.60,90.60 89.03,89.62 90.90,88.92 C95.39,87.22 103.72,79.47 106.13,74.75 C107.18,72.69 107.78,71.00 107.46,71.00 C107.14,71.00 107.24,70.44 107.67,69.75 C108.76,68.03 108.88,59.04 107.83,58.39 C107.35,58.10 107.20,57.49 107.48,57.04 C107.76,56.58 106.53,54.03 104.74,51.36 C102.23,47.61 99.94,45.72 94.60,43.01 C88.20,39.75 87.04,39.50 78.52,39.50 C70.41,39.50 68.69,39.83 63.69,42.36 C58.82,44.82 57.66,45.99 55.27,50.86 L 52.50 56.50 L 52.50 82.04 C52.50,104.08 52.73,107.93 54.15,110.10 ZM 84.14 76.41 C81.14,77.95 67.85,79.52 66.79,78.46 C66.41,78.08 66.32,74.78 66.60,71.13 C67.64,57.19 67.83,56.53 71.25,54.51 C74.64,52.51 83.62,51.57 84.57,53.11 C84.88,53.62 85.56,53.77 86.07,53.46 C86.58,53.14 87.00,53.43 87.00,54.11 C87.00,54.78 87.29,55.04 87.65,54.68 C88.53,53.80 92.91,58.97 93.63,61.75 C93.95,62.99 93.94,65.09 93.61,66.42 C92.90,69.24 87.96,74.46 84.14,76.41 Z" fill="rgba(25,160,146,1)"/>
<path d="M 54.15 110.10 C52.73,107.93 52.50,104.08 52.50,82.04 L 52.50 56.50 L 55.27 50.86 C57.66,45.99 58.82,44.82 63.69,42.36 C68.69,39.83 70.41,39.50 78.52,39.50 C87.04,39.50 88.20,39.75 94.60,43.01 C99.94,45.72 102.23,47.61 104.74,51.36 C106.53,54.03 107.76,56.58 107.48,57.04 C107.20,57.49 107.35,58.10 107.83,58.39 C108.88,59.04 108.76,68.03 107.67,69.75 C107.24,70.44 107.14,71.00 107.46,71.00 C107.78,71.00 107.18,72.69 106.13,74.75 C103.72,79.47 95.39,87.22 90.90,88.92 C89.03,89.62 86.60,90.60 85.50,91.09 C84.40,91.58 80.15,92.21 76.05,92.49 C71.95,92.78 68.27,93.34 67.87,93.75 C67.46,94.16 67.00,97.54 66.84,101.25 C66.68,104.96 66.17,108.00 65.71,108.00 C65.26,108.00 65.13,108.40 65.43,108.89 C66.31,110.30 63.81,111.73 59.65,112.19 C56.39,112.56 55.55,112.24 54.15,110.10 ZM 84.14 76.41 C87.96,74.46 92.90,69.24 93.61,66.42 C93.94,65.09 93.95,62.99 93.63,61.75 C92.91,58.97 88.53,53.80 87.65,54.68 C87.29,55.04 87.00,54.78 87.00,54.11 C87.00,53.43 86.58,53.14 86.07,53.46 C85.56,53.77 84.88,53.62 84.57,53.11 C83.62,51.57 74.64,52.51 71.25,54.51 C67.83,56.53 67.64,57.19 66.60,71.13 C66.32,74.78 66.41,78.08 66.79,78.46 C67.85,79.52 81.14,77.95 84.14,76.41 Z" fill="rgba(253,253,253,1)"/>
</g>
</svg>